<mxfile host="app.diagrams.net" modified="2023-06-25T00:05:42.531Z" agent="Mozilla/5.0 (Windows NT 10.0; Win64; x64) AppleWebKit/537.36 (KHTML, like Gecko) Chrome/114.0.0.0 Safari/537.36" version="21.5.0" etag="PdCqkqJAopwOJJF_mVXO" type="github">
  <diagram name="Page-1" id="0Nuz3KZQtZ7VwzI9Bbyk">
    <mxGraphModel>
      <root>
        <mxCell id="0" />
        <mxCell id="1" parent="0" />
      </root>
    </mxGraphModel>
  </diagram>
</mxfile>
